# xmcd
#
# Track frame offsets:
#	150
#	18037
#	33622
#	48994
#	65042
#	80794
#	97137
#	113021
#	130391
#	145759
#	162838
#	179414
#	195291
#	213274
#	231834
#	247041
#
# Disc length: 3516 seconds
#
# Revision: 1
# Processed by: cddbd v1.5.2PL0 Copyright (c) Steve Scherf et al.
# Submitted via: audiograbber 1.82.01
#
DISCID=e00dba10
DTITLE=happy end  - z³ota przeboje 
DYEAR=1900
DGENRE=
TTITLE0=jak sie masz kochanie
TTITLE1=a  ja têskniê
TTITLE2=jak cie kocham a ty spisz 
TTITLE3=ballada o marii magdalenie
TTITLE4=s³oneczna california
TTITLE5=nadaj do mnie s.o.s
TTITLE6=da³abym ci serce
TTITLE7=brzegiem morza
TTITLE8=nie ma jak w Ciechocinku
TTITLE9=w kolorze blue
TTITLE10=tak mi dobrze
TTITLE11=zza siedmiu gór
TTITLE12=teraz w sercu ogieñ
TTITLE13=poca³unki, pieszczoty
TTITLE14=tak blisko ciebie mam 
TTITLE15=dobrze sie mam , kochanie
EXTD=
EXTT0=jak sie masz kochanie
EXTT1=
EXTT2=
EXTT3=
EXTT4=
EXTT5=
EXTT6=
EXTT7=
EXTT8=
EXTT9=
EXTT10=
EXTT11=
EXTT12=
EXTT13=
EXTT14=
EXTT15=
PLAYORDER=
